# xmcd
#
# Track frame offsets: 
#        225
#        18238
#        38105
#        50059
#        69594
#        80356
#        94954
#        113731
#        133600
#        152493
#        167325
#
# Disc length: 2420 seconds
#
# Revision: 0
# Processed by: cddbd v1.4PL0 Copyright (c) Steve Scherf et al.
# Submitted via: ExactAudioCopy v0.95a3
#
DISCID=8409710b
DTITLE=Black and White - The First
DYEAR=1900
DGENRE=Blues
TTITLE0=When You Say Nothing
TTITLE1=Back To You
TTITLE2=I Would Walk 500 Miles
TTITLE3=Alone
TTITLE4=Tutti Frutti
TTITLE5=Stumblin' in
TTITLE6=Maria
TTITLE7=Angels
TTITLE8=Knockin' On Heaven's Door
TTITLE9=Caravan Of Love
TTITLE10=The Cat Is Dead
EXTD=
EXTT0=
EXTT1=
EXTT2=
EXTT3=
EXTT4=
EXTT5=
EXTT6=
EXTT7=
EXTT8=
EXTT9=
EXTT10=
PLAYORDER=
